<svg xmlns="http://www.w3.org/2000/svg" xmlns:svg="http://www.w3.org/2000/svg" id="svg4148" width="16" height="16" version="1.1" viewBox="0 0 16 16"><metadata id="metadata4153"/><g id="layer1" transform="translate(0,-1036.3622)"><path style="fill:none;fill-rule:evenodd;stroke:#000;stroke-width:1px;stroke-linecap:butt;stroke-linejoin:miter;stroke-opacity:1" id="path4893" d="m 2.8621284,1037.3477 c 2.5635185,5.7342 4.4524268,0.068 4.4524268,0.068 l 0.067461,-5e-4 c 2.4960576,4.9921 4.1825828,-0.1349 4.1825828,-0.1349 l 0.02385,0 c 2.765902,5.5993 4.091271,0 4.091271,0 l 0.02385,0 c 3.170668,5.9366 4.293654,0 4.293654,0"/><path style="fill:none;fill-rule:evenodd;stroke:#000;stroke-width:1px;stroke-linecap:butt;stroke-linejoin:miter;stroke-opacity:1" id="path4893-1" d="m -4.1486618,1041.2371 c 2.5635185,5.7342 4.45242682,0.068 4.45242682,0.068 l 0.067461,-5e-4 c 2.49605748,4.9921 4.18258278,-0.1349 4.18258278,-0.1349 l 0.023851,0 c 2.7659014,5.5993 4.0912704,0 4.0912704,0 l 0.02385,0 c 3.1706688,5.9366 4.2936548,0 4.2936548,0"/><path style="fill:none;fill-rule:evenodd;stroke:#000;stroke-width:1px;stroke-linecap:butt;stroke-linejoin:miter;stroke-opacity:1" id="path4893-2" d="m 3.7221911,1045.5303 c 2.5635186,5.7342 4.4524269,0.068 4.4524269,0.068 l 0.067461,-5e-4 c 2.496057,4.9921 4.182583,-0.1349 4.182583,-0.1349 l 0.02385,0 c 2.765901,5.5993 4.09127,0 4.09127,0 l 0.02385,0 c 3.170668,5.9366 4.293654,0 4.293654,0"/><path style="fill:none;fill-rule:evenodd;stroke:#000;stroke-width:1px;stroke-linecap:butt;stroke-linejoin:miter;stroke-opacity:1" id="path4893-9" d="m -3.5762361,1049.3465 c 2.5635185,5.7342 4.4524268,0.068 4.4524268,0.068 l 0.067461,-5e-4 c 2.4960575,4.9921 4.1825828,-0.1349 4.1825828,-0.1349 l 0.023851,0 c 2.7659014,5.5993 4.0912702,0 4.0912702,0 l 0.02385,0 c 3.1706683,5.9366 4.2936543,0 4.2936543,0"/></g></svg>