<svg xmlns="http://www.w3.org/2000/svg" xmlns:svg="http://www.w3.org/2000/svg" id="svg4148" width="16" height="16" version="1.1" viewBox="0 0 16 16"><metadata id="metadata4153"/><g id="layer1" transform="translate(0,-1036.3622)"><g id="g1023" style="opacity:1;fill:#000;fill-opacity:.15686275;fill-rule:evenodd;stroke:#000;stroke-width:1.00157475;stroke-miterlimit:4;stroke-dasharray:none;stroke-opacity:1"><path id="path1025" d="m 15.705552,1037.8317 v 5.8607 l -5.210258,-2.1739 v -4.5868 z" points="15.706 1043.692 10.495 1041.518 10.495 1036.932 15.706 1037.832" style="fill:#353564;fill-rule:evenodd;stroke:#000;stroke-width:1.00157475;stroke-linecap:butt;stroke-linejoin:round;stroke-miterlimit:4;stroke-dasharray:none;stroke-opacity:1"/><path id="path1029" d="m 15.705552,1037.8317 -10.5037094,2.9137 v 11.1274 l 10.5037094,-8.1804 z" points="5.202 1040.745 5.202 1051.873 15.706 1043.692 15.706 1037.832" style="fill:#8686bf;fill-rule:evenodd;stroke:#000;stroke-width:1.00157475;stroke-linecap:butt;stroke-linejoin:round;stroke-miterlimit:4;stroke-dasharray:none;stroke-opacity:1"/><path id="path1031" d="m 5.2018426,1040.7454 v 11.1274 l -4.64919579,-6.2775 v -7.2854 z" points="5.202 1051.873 .553 1045.595 .553 1038.31 5.202 1040.745" style="fill:#d7d7ff;fill-rule:evenodd;stroke:#000;stroke-width:1.00157475;stroke-linecap:butt;stroke-linejoin:round;stroke-miterlimit:4;stroke-dasharray:none;stroke-opacity:1"/><path id="path1027" d="m 15.705552,1037.8317 -10.5037094,2.9137 -4.64919579,-2.4355 9.94264719,-1.3782 z" points="5.202 1040.745 .553 1038.31 10.495 1036.932 15.706 1037.832" style="fill:#4d4d9f;fill-rule:evenodd;stroke:#000;stroke-width:1.00157475;stroke-linecap:butt;stroke-linejoin:round;stroke-miterlimit:4;stroke-dasharray:none;stroke-opacity:1"/><path id="path1033" d="m 15.705552,1043.6924 -10.5037094,8.1804 -4.64919579,-6.2775 9.94264719,-4.0768 z" points="5.202 1051.873 .553 1045.595 10.495 1041.518 15.706 1043.692" style="fill:#afafde;fill-rule:evenodd;stroke:#000;stroke-width:1.00157475;stroke-linecap:butt;stroke-linejoin:round;stroke-miterlimit:4;stroke-dasharray:none;stroke-opacity:1"/><path id="path1035" d="m 10.495294,1036.9317 -9.94264719,1.3782 v 7.2854 l 9.94264719,-4.0768 z" points=".553 1038.31 .553 1045.595 10.495 1041.518 10.495 1036.932" style="fill:#e9e9ff;fill-rule:evenodd;stroke:#000;stroke-width:1.00157475;stroke-linecap:butt;stroke-linejoin:round;stroke-miterlimit:4;stroke-dasharray:none;stroke-opacity:1"/></g></g></svg>