<svg xmlns="http://www.w3.org/2000/svg" xmlns:svg="http://www.w3.org/2000/svg" id="svg4148" width="16" height="16" version="1.1" viewBox="0 0 16 16"><metadata id="metadata4153"/><g id="layer1" transform="translate(0,-1036.3622)"><path style="opacity:1;fill:#fff;fill-opacity:0;fill-rule:evenodd;stroke:#000;stroke-width:.99369001;stroke-miterlimit:4;stroke-dasharray:none;stroke-opacity:1" id="path818" d="m 11.237265,1036.8591 a 4.2655011,4.1972104 0 0 0 -4.2658922,4.1979 4.2655011,4.1972104 0 0 0 0.025231,0.427 5.3408028,5.2552965 0 0 0 -1.1586611,-0.1299 5.3408028,5.2552965 0 0 0 -5.34109749,5.2556 5.3408028,5.2552965 0 0 0 5.34109749,5.2557 5.3408028,5.2552965 0 0 0 5.3410983,-5.2557 5.3408028,5.2552965 0 0 0 -0.186318,-1.3664 4.2655011,4.1972104 0 0 0 0.244542,0.012 4.2655011,4.1972104 0 0 0 4.26589,-4.198 4.2655011,4.1972104 0 0 0 -4.26589,-4.1979 z"/><path style="opacity:1;fill:#000;fill-opacity:.15686275;fill-rule:evenodd;stroke:none;stroke-width:.99369001;stroke-miterlimit:4;stroke-dasharray:none;stroke-opacity:1" id="path836" d="m 11.005859,1038.875 c -4.8895767,1.3679 0.321278,7.2823 2.416016,2.7578 0.450567,-1.4666 -0.923376,-2.9624 -2.416016,-2.7578 z m -5.5078121,4.5 c -5.49629855,0.4756 -2.1892763,9.0394 2.2363281,5.9121 2.667642,-1.8963 1.5392118,-6.8607 -2.2363281,-5.9121 z"/></g></svg>